<svg width="1120" height="624" viewBox="0 0 1120 624" fill="none" xmlns="http://www.w3.org/2000/svg">
<path fill-rule="evenodd" clip-rule="evenodd" d="M318.917 335.719C318.257 331.894 319.538 327.994 322.356 325.287L340.381 307.956C347.469 301.137 343.555 289.256 333.761 287.85L308.852 284.281C304.958 283.725 301.592 281.313 299.856 277.831L288.715 255.569C286.524 251.187 282.26 249 277.997 249C273.74 249 269.476 251.187 267.285 255.569L256.144 277.831C254.408 281.313 251.042 283.725 247.148 284.281L222.239 287.85C212.445 289.256 208.531 301.137 215.619 307.956L233.644 325.287C236.462 327.994 237.743 331.894 237.083 335.719L232.826 360.194C231.499 367.812 237.637 374 244.6 374C246.435 374 248.329 373.569 250.164 372.619L272.439 361.062C274.182 360.162 276.089 359.713 277.997 359.713C279.911 359.713 281.818 360.162 283.561 361.062L305.836 372.619C307.671 373.569 309.565 374 311.4 374C318.363 374 324.501 367.812 323.174 360.194L318.917 335.719ZM278.022 309.984H282.712V291.638H278.022V309.984ZM269.136 309.984H273.826V291.638H269.136V309.984ZM276.808 340.029H278.228C280.518 340.029 282.561 339.716 284.358 339.089C286.168 338.475 287.71 337.602 288.986 336.471C290.261 335.352 291.235 334.016 291.907 332.462C292.579 330.921 292.915 329.21 292.915 327.328C292.915 325.46 292.579 323.749 291.907 322.194C291.235 320.654 290.261 319.317 288.986 318.186C287.71 317.068 286.168 316.202 284.358 315.588C282.561 314.974 280.518 314.668 278.228 314.668H276.808C274.532 314.668 272.489 314.974 270.678 315.588C268.868 316.215 267.325 317.095 266.05 318.227C264.788 319.358 263.822 320.695 263.15 322.235C262.478 323.79 262.142 325.501 262.142 327.369C262.142 329.251 262.478 330.962 263.15 332.503C263.822 334.057 264.788 335.393 266.05 336.511C267.325 337.63 268.868 338.495 270.678 339.109C272.489 339.723 274.532 340.029 276.808 340.029ZM278.269 333.832H276.808C275.231 333.832 273.832 333.689 272.612 333.403C271.405 333.116 270.384 332.7 269.547 332.155C268.724 331.61 268.1 330.935 267.675 330.13C267.25 329.326 267.037 328.405 267.037 327.369C267.037 326.333 267.25 325.412 267.675 324.608C268.1 323.803 268.724 323.122 269.547 322.563C270.384 322.004 271.405 321.581 272.612 321.294C273.832 321.008 275.231 320.865 276.808 320.865H278.269C279.86 320.865 281.258 321.008 282.465 321.294C283.672 321.581 284.687 321.997 285.509 322.542C286.332 323.101 286.949 323.776 287.361 324.567C287.786 325.371 287.998 326.292 287.998 327.328C287.998 328.364 287.786 329.285 287.361 330.089C286.949 330.894 286.332 331.576 285.509 332.135C284.687 332.694 283.672 333.116 282.465 333.403C281.258 333.689 279.86 333.832 278.269 333.832Z" fill="#4E5455"/>
<path d="M425.309 335V306.562H419.801L419.781 324.824L411.93 306.562H406.402V335H411.93V316.66L419.84 335H425.309ZM441.031 335.391C443.076 335.391 444.846 334.993 446.344 334.199C447.841 333.405 448.935 332.52 449.625 331.543L446.91 328.613C446.285 329.421 445.471 330.026 444.469 330.43C443.466 330.833 442.431 331.035 441.363 331.035C440.608 331.035 439.911 330.918 439.273 330.684C438.635 330.449 438.069 330.117 437.574 329.688C437.092 329.271 436.708 328.809 436.422 328.301C436.135 327.78 435.901 327.096 435.719 326.25V326.191H450.055V323.887C450.055 322.337 449.84 320.924 449.41 319.648C448.98 318.359 448.355 317.259 447.535 316.348C446.702 315.436 445.686 314.733 444.488 314.238C443.303 313.73 441.949 313.477 440.426 313.477C438.954 313.477 437.594 313.743 436.344 314.277C435.094 314.811 434.013 315.56 433.102 316.523C432.19 317.487 431.48 318.639 430.973 319.98C430.465 321.309 430.211 322.78 430.211 324.395V325.176C430.211 326.595 430.465 327.93 430.973 329.18C431.493 330.417 432.229 331.491 433.18 332.402C434.13 333.327 435.27 334.056 436.598 334.59C437.926 335.124 439.404 335.391 441.031 335.391ZM440.387 317.871C441.077 317.871 441.682 317.982 442.203 318.203C442.737 318.411 443.186 318.698 443.551 319.062C443.915 319.44 444.202 319.883 444.41 320.391C444.618 320.898 444.723 321.439 444.723 322.012V322.441H435.816C435.947 321.751 436.142 321.126 436.402 320.566C436.663 320.007 436.988 319.525 437.379 319.121C437.757 318.717 438.199 318.411 438.707 318.203C439.215 317.982 439.775 317.871 440.387 317.871ZM454.801 335H460.25V319.98C460.432 319.694 460.634 319.434 460.855 319.199C461.077 318.965 461.324 318.763 461.598 318.594C461.936 318.359 462.32 318.184 462.75 318.066C463.193 317.949 463.674 317.891 464.195 317.891C464.82 317.891 465.38 317.956 465.875 318.086C466.37 318.203 466.793 318.418 467.145 318.73C467.496 319.043 467.763 319.473 467.945 320.02C468.141 320.553 468.238 321.237 468.238 322.07V335H473.668V321.992C473.668 320.456 473.486 319.154 473.121 318.086C472.77 317.005 472.275 316.12 471.637 315.43C470.986 314.753 470.217 314.258 469.332 313.945C468.447 313.633 467.47 313.477 466.402 313.477C465.569 313.477 464.781 313.594 464.039 313.828C463.297 314.062 462.613 314.401 461.988 314.844C461.624 315.104 461.279 315.397 460.953 315.723C460.628 316.048 460.328 316.406 460.055 316.797L459.723 313.867H454.801V335ZM484.254 316.777V305H478.824V335H484.254V319.746C484.462 319.473 484.69 319.225 484.938 319.004C485.198 318.783 485.484 318.594 485.797 318.438C486.135 318.255 486.513 318.118 486.93 318.027C487.346 317.936 487.796 317.891 488.277 317.891C488.902 317.891 489.462 317.975 489.957 318.145C490.452 318.301 490.875 318.548 491.227 318.887C491.578 319.225 491.845 319.668 492.027 320.215C492.223 320.762 492.32 321.413 492.32 322.168V335H497.75V322.207C497.75 320.658 497.561 319.336 497.184 318.242C496.819 317.135 496.305 316.23 495.641 315.527C494.977 314.824 494.182 314.31 493.258 313.984C492.333 313.646 491.318 313.477 490.211 313.477C489.456 313.477 488.74 313.587 488.062 313.809C487.385 314.03 486.767 314.342 486.207 314.746C485.842 315.007 485.491 315.312 485.152 315.664C484.827 316.003 484.527 316.374 484.254 316.777ZM516.637 335H521.559V313.867H516.109V328.691C515.94 329.03 515.738 329.336 515.504 329.609C515.27 329.883 515.003 330.117 514.703 330.312C514.352 330.534 513.941 330.703 513.473 330.82C513.017 330.938 512.503 330.996 511.93 330.996C511.292 330.996 510.751 330.918 510.309 330.762C509.866 330.605 509.508 330.345 509.234 329.98C508.961 329.629 508.759 329.16 508.629 328.574C508.512 327.988 508.453 327.266 508.453 326.406V313.867H503.023V326.367C503.023 327.969 503.199 329.342 503.551 330.488C503.915 331.621 504.423 332.552 505.074 333.281C505.725 334.023 506.507 334.564 507.418 334.902C508.329 335.241 509.332 335.41 510.426 335.41C511.624 335.41 512.724 335.111 513.727 334.512C514.742 333.913 515.608 333.086 516.324 332.031L516.637 335ZM530.25 313.867H525.582V335H530.523V319.18C530.589 319.01 530.66 318.854 530.738 318.711C530.816 318.568 530.908 318.444 531.012 318.34C531.155 318.197 531.318 318.086 531.5 318.008C531.682 317.93 531.891 317.891 532.125 317.891C532.333 317.891 532.529 317.923 532.711 317.988C532.893 318.04 533.056 318.138 533.199 318.281C533.329 318.424 533.434 318.626 533.512 318.887C533.59 319.147 533.629 319.479 533.629 319.883V335H538.414V319.414C538.414 319.258 538.414 319.134 538.414 319.043C538.414 318.952 538.414 318.893 538.414 318.867C538.479 318.724 538.557 318.6 538.648 318.496C538.74 318.379 538.844 318.275 538.961 318.184C539.104 318.092 539.254 318.021 539.41 317.969C539.579 317.917 539.768 317.891 539.977 317.891C540.172 317.891 540.361 317.923 540.543 317.988C540.738 318.04 540.908 318.138 541.051 318.281C541.194 318.438 541.305 318.646 541.383 318.906C541.474 319.167 541.52 319.499 541.52 319.902V335H546.461V319.922C546.461 318.75 546.344 317.76 546.109 316.953C545.888 316.133 545.576 315.462 545.172 314.941C544.755 314.434 544.267 314.062 543.707 313.828C543.16 313.594 542.568 313.477 541.93 313.477C541.422 313.477 540.953 313.542 540.523 313.672C540.094 313.802 539.71 313.984 539.371 314.219C539.098 314.401 538.844 314.622 538.609 314.883C538.388 315.13 538.186 315.41 538.004 315.723C537.887 315.397 537.743 315.111 537.574 314.863C537.418 314.603 537.229 314.382 537.008 314.199C536.721 313.952 536.383 313.77 535.992 313.652C535.602 313.535 535.159 313.477 534.664 313.477C533.648 313.477 532.783 313.743 532.066 314.277C531.363 314.798 530.81 315.514 530.406 316.426L530.25 313.867ZM580.172 335H585.621V317.871H593.238V313.867H585.621V312.715C585.621 312.09 585.699 311.53 585.855 311.035C586.025 310.54 586.279 310.124 586.617 309.785C586.995 309.382 587.503 309.076 588.141 308.867C588.779 308.659 589.553 308.555 590.465 308.555C591.311 308.555 592.047 308.594 592.672 308.672C593.297 308.75 593.857 308.841 594.352 308.945L594.703 304.688C594.26 304.609 593.831 304.538 593.414 304.473C593.01 304.408 592.607 304.349 592.203 304.297C591.799 304.245 591.383 304.206 590.953 304.18C590.536 304.141 590.1 304.121 589.645 304.121C588.199 304.121 586.891 304.31 585.719 304.688C584.547 305.052 583.551 305.599 582.73 306.328C581.91 307.057 581.279 307.956 580.836 309.023C580.393 310.091 580.172 311.322 580.172 312.715V313.867H574.625V317.871H580.172V335ZM612.145 335H617.652V334.668C617.379 334.134 617.171 333.496 617.027 332.754C616.884 332.012 616.812 331.074 616.812 329.941V320.879C616.812 319.655 616.585 318.581 616.129 317.656C615.673 316.719 615.042 315.944 614.234 315.332C613.427 314.72 612.47 314.258 611.363 313.945C610.27 313.633 609.085 313.477 607.809 313.477C606.389 313.477 605.126 313.659 604.02 314.023C602.926 314.375 602.001 314.857 601.246 315.469C600.478 316.081 599.892 316.79 599.488 317.598C599.098 318.405 598.902 319.258 598.902 320.156H604.332C604.332 319.779 604.384 319.434 604.488 319.121C604.605 318.809 604.781 318.542 605.016 318.32C605.276 318.073 605.615 317.884 606.031 317.754C606.448 317.611 606.943 317.539 607.516 317.539C608.167 317.539 608.733 317.624 609.215 317.793C609.71 317.949 610.12 318.177 610.445 318.477C610.758 318.763 610.992 319.108 611.148 319.512C611.305 319.902 611.383 320.345 611.383 320.84V322.09H608.355C606.793 322.09 605.406 322.233 604.195 322.52C602.997 322.793 601.988 323.197 601.168 323.73C600.257 324.316 599.573 325.065 599.117 325.977C598.661 326.875 598.434 327.91 598.434 329.082C598.434 329.993 598.616 330.84 598.98 331.621C599.345 332.389 599.853 333.053 600.504 333.613C601.155 334.173 601.93 334.609 602.828 334.922C603.74 335.234 604.736 335.391 605.816 335.391C606.48 335.391 607.099 335.326 607.672 335.195C608.245 335.078 608.772 334.909 609.254 334.688C609.723 334.479 610.152 334.232 610.543 333.945C610.934 333.659 611.279 333.353 611.578 333.027C611.643 333.405 611.721 333.763 611.812 334.102C611.904 334.44 612.014 334.74 612.145 335ZM606.969 331.191C606.461 331.191 606.012 331.133 605.621 331.016C605.243 330.885 604.924 330.716 604.664 330.508C604.404 330.286 604.202 330.02 604.059 329.707C603.928 329.382 603.863 329.03 603.863 328.652C603.863 328.171 603.954 327.728 604.137 327.324C604.319 326.908 604.599 326.549 604.977 326.25C605.354 325.964 605.842 325.742 606.441 325.586C607.04 325.417 607.763 325.332 608.609 325.332H611.383V328.965C611.227 329.238 611.012 329.512 610.738 329.785C610.465 330.046 610.139 330.28 609.762 330.488C609.384 330.697 608.961 330.866 608.492 330.996C608.023 331.126 607.516 331.191 606.969 331.191ZM629.684 335H634.781L642.809 313.867H637.145L632.516 328.77L632.223 330.254L631.93 328.77L627.281 313.867H621.617L629.684 335ZM646.246 324.238V324.648C646.246 326.198 646.467 327.63 646.91 328.945C647.353 330.247 648.004 331.38 648.863 332.344C649.71 333.307 650.751 334.062 651.988 334.609C653.238 335.143 654.658 335.41 656.246 335.41C657.822 335.41 659.228 335.143 660.465 334.609C661.702 334.062 662.743 333.307 663.59 332.344C664.436 331.38 665.081 330.247 665.523 328.945C665.966 327.63 666.188 326.198 666.188 324.648V324.238C666.188 322.702 665.966 321.283 665.523 319.98C665.081 318.665 664.436 317.526 663.59 316.562C662.73 315.599 661.682 314.844 660.445 314.297C659.208 313.75 657.796 313.477 656.207 313.477C654.618 313.477 653.206 313.75 651.969 314.297C650.745 314.844 649.71 315.599 648.863 316.562C648.004 317.526 647.353 318.665 646.91 319.98C646.467 321.283 646.246 322.702 646.246 324.238ZM651.676 324.648V324.238C651.676 323.379 651.76 322.565 651.93 321.797C652.099 321.029 652.366 320.352 652.73 319.766C653.095 319.18 653.564 318.717 654.137 318.379C654.71 318.04 655.4 317.871 656.207 317.871C657.027 317.871 657.724 318.04 658.297 318.379C658.87 318.717 659.339 319.18 659.703 319.766C660.055 320.352 660.315 321.029 660.484 321.797C660.654 322.565 660.738 323.379 660.738 324.238V324.648C660.738 325.534 660.654 326.367 660.484 327.148C660.315 327.917 660.055 328.587 659.703 329.16C659.339 329.746 658.87 330.208 658.297 330.547C657.724 330.885 657.04 331.055 656.246 331.055C655.426 331.055 654.723 330.885 654.137 330.547C653.564 330.208 653.095 329.746 652.73 329.16C652.366 328.587 652.099 327.917 651.93 327.148C651.76 326.367 651.676 325.534 651.676 324.648ZM686.188 313.477C684.768 313.477 683.46 313.822 682.262 314.512C681.064 315.189 680.035 316.126 679.176 317.324L679.137 316.855L678.922 313.867H673.863V335H679.293V322.305C679.54 321.706 679.853 321.185 680.23 320.742C680.608 320.299 681.064 319.935 681.598 319.648C682.04 319.401 682.542 319.219 683.102 319.102C683.674 318.971 684.312 318.906 685.016 318.906C685.693 318.906 686.402 318.952 687.145 319.043C687.9 319.121 688.635 319.245 689.352 319.414L690.152 314.004C689.723 313.874 689.156 313.757 688.453 313.652C687.763 313.535 687.008 313.477 686.188 313.477ZM696.48 313.867V318.301H702.496V330.586H696.48V335H713.707V330.586H707.984V313.867H696.48ZM702.105 308.457C702.105 308.874 702.177 309.264 702.32 309.629C702.477 309.98 702.691 310.28 702.965 310.527C703.238 310.788 703.564 310.99 703.941 311.133C704.332 311.276 704.762 311.348 705.23 311.348C706.194 311.348 706.956 311.081 707.516 310.547C708.089 310 708.375 309.303 708.375 308.457C708.375 307.611 708.089 306.921 707.516 306.387C706.956 305.84 706.194 305.566 705.23 305.566C704.762 305.566 704.332 305.638 703.941 305.781C703.564 305.924 703.238 306.12 702.965 306.367C702.691 306.628 702.477 306.94 702.32 307.305C702.177 307.656 702.105 308.04 702.105 308.457ZM729.02 308.691H723.59V313.867H718.766V317.871H723.59V327.48C723.59 328.874 723.772 330.072 724.137 331.074C724.501 332.064 725.022 332.878 725.699 333.516C726.363 334.167 727.164 334.648 728.102 334.961C729.052 335.26 730.107 335.41 731.266 335.41C731.865 335.41 732.47 335.378 733.082 335.312C733.707 335.26 734.306 335.182 734.879 335.078C735.452 334.974 735.992 334.844 736.5 334.688C737.008 334.518 737.451 334.323 737.828 334.102L737.301 330.371C737.053 330.436 736.754 330.501 736.402 330.566C736.064 330.632 735.699 330.69 735.309 330.742C734.905 330.807 734.482 330.859 734.039 330.898C733.609 330.938 733.186 330.957 732.77 330.957C732.197 330.957 731.676 330.892 731.207 330.762C730.751 330.632 730.361 330.41 730.035 330.098C729.71 329.798 729.456 329.395 729.273 328.887C729.104 328.366 729.02 327.721 729.02 326.953V317.871H736.91V313.867H729.02V308.691ZM742.34 324.238V324.648C742.34 326.198 742.561 327.63 743.004 328.945C743.447 330.247 744.098 331.38 744.957 332.344C745.803 333.307 746.845 334.062 748.082 334.609C749.332 335.143 750.751 335.41 752.34 335.41C753.915 335.41 755.322 335.143 756.559 334.609C757.796 334.062 758.837 333.307 759.684 332.344C760.53 331.38 761.174 330.247 761.617 328.945C762.06 327.63 762.281 326.198 762.281 324.648V324.238C762.281 322.702 762.06 321.283 761.617 319.98C761.174 318.665 760.53 317.526 759.684 316.562C758.824 315.599 757.776 314.844 756.539 314.297C755.302 313.75 753.889 313.477 752.301 313.477C750.712 313.477 749.299 313.75 748.062 314.297C746.839 314.844 745.803 315.599 744.957 316.562C744.098 317.526 743.447 318.665 743.004 319.98C742.561 321.283 742.34 322.702 742.34 324.238ZM747.77 324.648V324.238C747.77 323.379 747.854 322.565 748.023 321.797C748.193 321.029 748.46 320.352 748.824 319.766C749.189 319.18 749.658 318.717 750.23 318.379C750.803 318.04 751.493 317.871 752.301 317.871C753.121 317.871 753.818 318.04 754.391 318.379C754.964 318.717 755.432 319.18 755.797 319.766C756.148 320.352 756.409 321.029 756.578 321.797C756.747 322.565 756.832 323.379 756.832 324.238V324.648C756.832 325.534 756.747 326.367 756.578 327.148C756.409 327.917 756.148 328.587 755.797 329.16C755.432 329.746 754.964 330.208 754.391 330.547C753.818 330.885 753.134 331.055 752.34 331.055C751.52 331.055 750.816 330.885 750.23 330.547C749.658 330.208 749.189 329.746 748.824 329.16C748.46 328.587 748.193 327.917 748.023 327.148C747.854 326.367 747.77 325.534 747.77 324.648ZM804.332 335H809.84V334.668C809.566 334.134 809.358 333.496 809.215 332.754C809.072 332.012 809 331.074 809 329.941V320.879C809 319.655 808.772 318.581 808.316 317.656C807.861 316.719 807.229 315.944 806.422 315.332C805.615 314.72 804.658 314.258 803.551 313.945C802.457 313.633 801.272 313.477 799.996 313.477C798.577 313.477 797.314 313.659 796.207 314.023C795.113 314.375 794.189 314.857 793.434 315.469C792.665 316.081 792.079 316.79 791.676 317.598C791.285 318.405 791.09 319.258 791.09 320.156H796.52C796.52 319.779 796.572 319.434 796.676 319.121C796.793 318.809 796.969 318.542 797.203 318.32C797.464 318.073 797.802 317.884 798.219 317.754C798.635 317.611 799.13 317.539 799.703 317.539C800.354 317.539 800.921 317.624 801.402 317.793C801.897 317.949 802.307 318.177 802.633 318.477C802.945 318.763 803.18 319.108 803.336 319.512C803.492 319.902 803.57 320.345 803.57 320.84V322.09H800.543C798.98 322.09 797.594 322.233 796.383 322.52C795.185 322.793 794.176 323.197 793.355 323.73C792.444 324.316 791.76 325.065 791.305 325.977C790.849 326.875 790.621 327.91 790.621 329.082C790.621 329.993 790.803 330.84 791.168 331.621C791.533 332.389 792.04 333.053 792.691 333.613C793.342 334.173 794.117 334.609 795.016 334.922C795.927 335.234 796.923 335.391 798.004 335.391C798.668 335.391 799.286 335.326 799.859 335.195C800.432 335.078 800.96 334.909 801.441 334.688C801.91 334.479 802.34 334.232 802.73 333.945C803.121 333.659 803.466 333.353 803.766 333.027C803.831 333.405 803.909 333.763 804 334.102C804.091 334.44 804.202 334.74 804.332 335ZM799.156 331.191C798.648 331.191 798.199 331.133 797.809 331.016C797.431 330.885 797.112 330.716 796.852 330.508C796.591 330.286 796.389 330.02 796.246 329.707C796.116 329.382 796.051 329.03 796.051 328.652C796.051 328.171 796.142 327.728 796.324 327.324C796.507 326.908 796.786 326.549 797.164 326.25C797.542 325.964 798.03 325.742 798.629 325.586C799.228 325.417 799.951 325.332 800.797 325.332H803.57V328.965C803.414 329.238 803.199 329.512 802.926 329.785C802.652 330.046 802.327 330.28 801.949 330.488C801.572 330.697 801.148 330.866 800.68 330.996C800.211 331.126 799.703 331.191 799.156 331.191ZM816.598 313.867V318.301H822.613V330.586H816.598V335H833.824V330.586H828.102V313.867H816.598ZM822.223 308.457C822.223 308.874 822.294 309.264 822.438 309.629C822.594 309.98 822.809 310.28 823.082 310.527C823.355 310.788 823.681 310.99 824.059 311.133C824.449 311.276 824.879 311.348 825.348 311.348C826.311 311.348 827.073 311.081 827.633 310.547C828.206 310 828.492 309.303 828.492 308.457C828.492 307.611 828.206 306.921 827.633 306.387C827.073 305.84 826.311 305.566 825.348 305.566C824.879 305.566 824.449 305.638 824.059 305.781C823.681 305.924 823.355 306.12 823.082 306.367C822.809 306.628 822.594 306.94 822.438 307.305C822.294 307.656 822.223 308.04 822.223 308.457ZM839.176 335H844.625V319.98C844.807 319.694 845.009 319.434 845.23 319.199C845.452 318.965 845.699 318.763 845.973 318.594C846.311 318.359 846.695 318.184 847.125 318.066C847.568 317.949 848.049 317.891 848.57 317.891C849.195 317.891 849.755 317.956 850.25 318.086C850.745 318.203 851.168 318.418 851.52 318.73C851.871 319.043 852.138 319.473 852.32 320.02C852.516 320.553 852.613 321.237 852.613 322.07V335H858.043V321.992C858.043 320.456 857.861 319.154 857.496 318.086C857.145 317.005 856.65 316.12 856.012 315.43C855.361 314.753 854.592 314.258 853.707 313.945C852.822 313.633 851.845 313.477 850.777 313.477C849.944 313.477 849.156 313.594 848.414 313.828C847.672 314.062 846.988 314.401 846.363 314.844C845.999 315.104 845.654 315.397 845.328 315.723C845.003 316.048 844.703 316.406 844.43 316.797L844.098 313.867H839.176V335ZM862.633 324.277V324.688C862.633 326.224 862.822 327.65 863.199 328.965C863.577 330.267 864.124 331.393 864.84 332.344C865.543 333.294 866.402 334.043 867.418 334.59C868.447 335.124 869.605 335.391 870.895 335.391C872.079 335.391 873.121 335.163 874.02 334.707C874.918 334.251 875.699 333.613 876.363 332.793L876.637 335H881.539V305H876.09V315.762C875.439 315.033 874.69 314.473 873.844 314.082C873.01 313.678 872.04 313.477 870.934 313.477C869.618 313.477 868.447 313.737 867.418 314.258C866.402 314.779 865.536 315.514 864.82 316.465C864.104 317.415 863.557 318.555 863.18 319.883C862.815 321.211 862.633 322.676 862.633 324.277ZM868.062 324.688V324.277C868.062 323.392 868.141 322.565 868.297 321.797C868.453 321.016 868.701 320.332 869.039 319.746C869.378 319.173 869.814 318.724 870.348 318.398C870.895 318.06 871.552 317.891 872.32 317.891C873.245 317.891 874.013 318.092 874.625 318.496C875.237 318.887 875.725 319.44 876.09 320.156V328.711C875.725 329.414 875.23 329.967 874.605 330.371C873.993 330.775 873.219 330.977 872.281 330.977C871.513 330.977 870.862 330.814 870.328 330.488C869.794 330.163 869.358 329.714 869.02 329.141C868.681 328.581 868.434 327.923 868.277 327.168C868.134 326.4 868.062 325.573 868.062 324.688ZM900.426 335H905.934V334.668C905.66 334.134 905.452 333.496 905.309 332.754C905.165 332.012 905.094 331.074 905.094 329.941V320.879C905.094 319.655 904.866 318.581 904.41 317.656C903.954 316.719 903.323 315.944 902.516 315.332C901.708 314.72 900.751 314.258 899.645 313.945C898.551 313.633 897.366 313.477 896.09 313.477C894.671 313.477 893.408 313.659 892.301 314.023C891.207 314.375 890.283 314.857 889.527 315.469C888.759 316.081 888.173 316.79 887.77 317.598C887.379 318.405 887.184 319.258 887.184 320.156H892.613C892.613 319.779 892.665 319.434 892.77 319.121C892.887 318.809 893.062 318.542 893.297 318.32C893.557 318.073 893.896 317.884 894.312 317.754C894.729 317.611 895.224 317.539 895.797 317.539C896.448 317.539 897.014 317.624 897.496 317.793C897.991 317.949 898.401 318.177 898.727 318.477C899.039 318.763 899.273 319.108 899.43 319.512C899.586 319.902 899.664 320.345 899.664 320.84V322.09H896.637C895.074 322.09 893.688 322.233 892.477 322.52C891.279 322.793 890.27 323.197 889.449 323.73C888.538 324.316 887.854 325.065 887.398 325.977C886.943 326.875 886.715 327.91 886.715 329.082C886.715 329.993 886.897 330.84 887.262 331.621C887.626 332.389 888.134 333.053 888.785 333.613C889.436 334.173 890.211 334.609 891.109 334.922C892.021 335.234 893.017 335.391 894.098 335.391C894.762 335.391 895.38 335.326 895.953 335.195C896.526 335.078 897.053 334.909 897.535 334.688C898.004 334.479 898.434 334.232 898.824 333.945C899.215 333.659 899.56 333.353 899.859 333.027C899.924 333.405 900.003 333.763 900.094 334.102C900.185 334.44 900.296 334.74 900.426 335ZM895.25 331.191C894.742 331.191 894.293 331.133 893.902 331.016C893.525 330.885 893.206 330.716 892.945 330.508C892.685 330.286 892.483 330.02 892.34 329.707C892.21 329.382 892.145 329.03 892.145 328.652C892.145 328.171 892.236 327.728 892.418 327.324C892.6 326.908 892.88 326.549 893.258 326.25C893.635 325.964 894.124 325.742 894.723 325.586C895.322 325.417 896.044 325.332 896.891 325.332H899.664V328.965C899.508 329.238 899.293 329.512 899.02 329.785C898.746 330.046 898.421 330.28 898.043 330.488C897.665 330.697 897.242 330.866 896.773 330.996C896.305 331.126 895.797 331.191 895.25 331.191Z" fill="#4E5455"/>
</svg>
